<mxfile host="app.diagrams.net" modified="2023-08-24T12:34:01.202Z" agent="Mozilla/5.0 (Windows NT 10.0; Win64; x64) AppleWebKit/537.36 (KHTML, like Gecko) Chrome/116.0.0.0 Safari/537.36" etag="kHbi_wO1cRAOW2Bno_c6" version="21.6.9" type="github">
  <diagram name="第 1 页" id="yTaMRQ9-IUmEVmEACAPu">
    <mxGraphModel dx="1434" dy="910" grid="1" gridSize="10" guides="1" tooltips="1" connect="1" arrows="1" fold="1" page="1" pageScale="1" pageWidth="827" pageHeight="1169" math="0" shadow="0">
      <root>
        <mxCell id="0" />
        <mxCell id="1" parent="0" />
        <mxCell id="Ci0UJjsKDZjVtey__nGe-1" value="1" style="ellipse;whiteSpace=wrap;html=1;" vertex="1" parent="1">
          <mxGeometry x="430" y="190" width="120" height="80" as="geometry" />
        </mxCell>
        <mxCell id="Ci0UJjsKDZjVtey__nGe-2" value="数据输入阶段" style="swimlane;whiteSpace=wrap" vertex="1" parent="1">
          <mxGeometry x="164.5" y="128" width="280" height="564" as="geometry" />
        </mxCell>
        <mxCell id="Ci0UJjsKDZjVtey__nGe-3" value="" style="ellipse;shape=startState;fillColor=#000000;strokeColor=#ff0000;" vertex="1" parent="Ci0UJjsKDZjVtey__nGe-2">
          <mxGeometry x="100" y="40" width="30" height="30" as="geometry" />
        </mxCell>
        <mxCell id="Ci0UJjsKDZjVtey__nGe-4" value="" style="edgeStyle=elbowEdgeStyle;elbow=horizontal;verticalAlign=bottom;endArrow=open;endSize=8;strokeColor=#FF0000;endFill=1;rounded=0" edge="1" parent="Ci0UJjsKDZjVtey__nGe-2" source="Ci0UJjsKDZjVtey__nGe-3" target="Ci0UJjsKDZjVtey__nGe-5">
          <mxGeometry x="100" y="40" as="geometry">
            <mxPoint x="115" y="110" as="targetPoint" />
          </mxGeometry>
        </mxCell>
        <mxCell id="Ci0UJjsKDZjVtey__nGe-5" value="架构对象定义变更&#xa;架构对象数据变更&#xa;对象关联关系变更" style="" vertex="1" parent="Ci0UJjsKDZjVtey__nGe-2">
          <mxGeometry x="60" y="110" width="110" height="50" as="geometry" />
        </mxCell>
        <mxCell id="Ci0UJjsKDZjVtey__nGe-6" value="" style="endArrow=open;strokeColor=#FF0000;endFill=1;rounded=0;entryX=0.5;entryY=0;entryDx=0;entryDy=0;" edge="1" parent="Ci0UJjsKDZjVtey__nGe-2" source="Ci0UJjsKDZjVtey__nGe-5" target="Ci0UJjsKDZjVtey__nGe-7">
          <mxGeometry relative="1" as="geometry">
            <mxPoint x="115" y="220" as="targetPoint" />
          </mxGeometry>
        </mxCell>
        <mxCell id="Ci0UJjsKDZjVtey__nGe-7" value="持久化至关系型数据库" style="whiteSpace=wrap;" vertex="1" parent="Ci0UJjsKDZjVtey__nGe-2">
          <mxGeometry x="60" y="205" width="110" height="50" as="geometry" />
        </mxCell>
        <mxCell id="Ci0UJjsKDZjVtey__nGe-8" value="" style="ellipse;shape=endState;fillColor=#000000;strokeColor=#ff0000" vertex="1" parent="Ci0UJjsKDZjVtey__nGe-2">
          <mxGeometry x="100" y="465" width="30" height="30" as="geometry" />
        </mxCell>
        <mxCell id="Ci0UJjsKDZjVtey__nGe-9" style="edgeStyle=orthogonalEdgeStyle;rounded=0;orthogonalLoop=1;jettySize=auto;html=1;entryX=0.5;entryY=0;entryDx=0;entryDy=0;strokeColor=#FF0000;" edge="1" parent="Ci0UJjsKDZjVtey__nGe-2" source="Ci0UJjsKDZjVtey__nGe-10" target="Ci0UJjsKDZjVtey__nGe-8">
          <mxGeometry relative="1" as="geometry" />
        </mxCell>
        <mxCell id="Ci0UJjsKDZjVtey__nGe-10" value="发送数据新增、变更消息" style="whiteSpace=wrap;" vertex="1" parent="Ci0UJjsKDZjVtey__nGe-2">
          <mxGeometry x="60" y="327" width="110" height="50" as="geometry" />
        </mxCell>
        <mxCell id="Ci0UJjsKDZjVtey__nGe-11" value="" style="endArrow=open;strokeColor=#FF0000;endFill=1;rounded=0;edgeStyle=elbowEdgeStyle;" edge="1" parent="Ci0UJjsKDZjVtey__nGe-2" source="Ci0UJjsKDZjVtey__nGe-7" target="Ci0UJjsKDZjVtey__nGe-10">
          <mxGeometry relative="1" as="geometry" />
        </mxCell>
        <mxCell id="Ci0UJjsKDZjVtey__nGe-12" value="数据同步阶段" style="swimlane;whiteSpace=wrap" vertex="1" parent="1">
          <mxGeometry x="445.5" y="128" width="265.5" height="565" as="geometry" />
        </mxCell>
        <mxCell id="Ci0UJjsKDZjVtey__nGe-13" style="rounded=0;orthogonalLoop=1;jettySize=auto;html=1;strokeColor=#FF0000;entryX=0.5;entryY=0;entryDx=0;entryDy=0;" edge="1" parent="Ci0UJjsKDZjVtey__nGe-12" source="Ci0UJjsKDZjVtey__nGe-15" target="Ci0UJjsKDZjVtey__nGe-17">
          <mxGeometry relative="1" as="geometry" />
        </mxCell>
        <mxCell id="Ci0UJjsKDZjVtey__nGe-14" value="架构数据变更&amp;amp;关联关系变更" style="edgeLabel;html=1;align=center;verticalAlign=middle;resizable=0;points=[];" vertex="1" connectable="0" parent="Ci0UJjsKDZjVtey__nGe-13">
          <mxGeometry x="-0.0869" y="-3" relative="1" as="geometry">
            <mxPoint x="25" as="offset" />
          </mxGeometry>
        </mxCell>
        <mxCell id="Ci0UJjsKDZjVtey__nGe-15" value="RocketMQ" style="shape=note;whiteSpace=wrap;size=17;fillColor=#fff2cc;strokeColor=#d6b656;" vertex="1" parent="Ci0UJjsKDZjVtey__nGe-12">
          <mxGeometry x="-51.5" y="141" width="100" height="50" as="geometry" />
        </mxCell>
        <mxCell id="Ci0UJjsKDZjVtey__nGe-16" style="rounded=0;orthogonalLoop=1;jettySize=auto;html=1;exitX=0.5;exitY=1;exitDx=0;exitDy=0;strokeColor=#FF0000;" edge="1" parent="Ci0UJjsKDZjVtey__nGe-12" source="Ci0UJjsKDZjVtey__nGe-17" target="Ci0UJjsKDZjVtey__nGe-18">
          <mxGeometry relative="1" as="geometry" />
        </mxCell>
        <mxCell id="Ci0UJjsKDZjVtey__nGe-17" value="数据三元组同步至图数据库" style="whiteSpace=wrap;" vertex="1" parent="Ci0UJjsKDZjVtey__nGe-12">
          <mxGeometry x="68.5" y="209" width="110" height="50" as="geometry" />
        </mxCell>
        <mxCell id="Ci0UJjsKDZjVtey__nGe-18" value="" style="ellipse;shape=endState;fillColor=#000000;strokeColor=#ff0000" vertex="1" parent="Ci0UJjsKDZjVtey__nGe-12">
          <mxGeometry x="108.5" y="462" width="30" height="30" as="geometry" />
        </mxCell>
        <mxCell id="Ci0UJjsKDZjVtey__nGe-19" value="" style="endArrow=classic;strokeColor=#FF0000;endFill=1;rounded=0;dashed=1" edge="1" parent="1" source="Ci0UJjsKDZjVtey__nGe-10" target="Ci0UJjsKDZjVtey__nGe-15">
          <mxGeometry relative="1" as="geometry" />
        </mxCell>
        <mxCell id="Ci0UJjsKDZjVtey__nGe-20" value="架构对象影响分析" style="swimlane;whiteSpace=wrap;startSize=23;" vertex="1" parent="1">
          <mxGeometry x="967" y="130" width="227" height="665" as="geometry" />
        </mxCell>
        <mxCell id="Ci0UJjsKDZjVtey__nGe-21" value="" style="ellipse;shape=startState;fillColor=#000000;strokeColor=#ff0000;" vertex="1" parent="Ci0UJjsKDZjVtey__nGe-20">
          <mxGeometry x="100" y="40" width="30" height="30" as="geometry" />
        </mxCell>
        <mxCell id="Ci0UJjsKDZjVtey__nGe-22" value="" style="edgeStyle=elbowEdgeStyle;elbow=horizontal;verticalAlign=bottom;endArrow=open;endSize=8;strokeColor=#FF0000;endFill=1;rounded=0" edge="1" parent="Ci0UJjsKDZjVtey__nGe-20" source="Ci0UJjsKDZjVtey__nGe-21" target="Ci0UJjsKDZjVtey__nGe-23">
          <mxGeometry x="100" y="40" as="geometry">
            <mxPoint x="115" y="110" as="targetPoint" />
          </mxGeometry>
        </mxCell>
        <mxCell id="Ci0UJjsKDZjVtey__nGe-23" value="架构对象请求" style="" vertex="1" parent="Ci0UJjsKDZjVtey__nGe-20">
          <mxGeometry x="60" y="110" width="110" height="50" as="geometry" />
        </mxCell>
        <mxCell id="Ci0UJjsKDZjVtey__nGe-24" value="查询多级关联数据" style="" vertex="1" parent="Ci0UJjsKDZjVtey__nGe-20">
          <mxGeometry x="60" y="206" width="110" height="50" as="geometry" />
        </mxCell>
        <mxCell id="Ci0UJjsKDZjVtey__nGe-25" value="" style="endArrow=open;strokeColor=#FF0000;endFill=1;rounded=0" edge="1" parent="Ci0UJjsKDZjVtey__nGe-20" source="Ci0UJjsKDZjVtey__nGe-23" target="Ci0UJjsKDZjVtey__nGe-24">
          <mxGeometry relative="1" as="geometry" />
        </mxCell>
        <mxCell id="Ci0UJjsKDZjVtey__nGe-26" value="根据关键要素丰富数据本体" style="whiteSpace=wrap;" vertex="1" parent="Ci0UJjsKDZjVtey__nGe-20">
          <mxGeometry x="60" y="402" width="110" height="50" as="geometry" />
        </mxCell>
        <mxCell id="Ci0UJjsKDZjVtey__nGe-27" value="" style="ellipse;shape=endState;fillColor=#000000;strokeColor=#ff0000" vertex="1" parent="Ci0UJjsKDZjVtey__nGe-20">
          <mxGeometry x="100" y="618" width="30" height="30" as="geometry" />
        </mxCell>
        <mxCell id="Ci0UJjsKDZjVtey__nGe-28" value="" style="endArrow=open;strokeColor=#FF0000;endFill=1;rounded=0;exitX=0.5;exitY=1;exitDx=0;exitDy=0;entryX=0.5;entryY=0;entryDx=0;entryDy=0;" edge="1" parent="Ci0UJjsKDZjVtey__nGe-20" source="Ci0UJjsKDZjVtey__nGe-24" target="Ci0UJjsKDZjVtey__nGe-33">
          <mxGeometry relative="1" as="geometry">
            <mxPoint x="125" y="170" as="sourcePoint" />
            <mxPoint x="115" y="314" as="targetPoint" />
          </mxGeometry>
        </mxCell>
        <mxCell id="Ci0UJjsKDZjVtey__nGe-29" value="" style="endArrow=open;strokeColor=#FF0000;endFill=1;rounded=0;entryX=0.505;entryY=0;entryDx=0;entryDy=0;entryPerimeter=0;exitX=0.5;exitY=1;exitDx=0;exitDy=0;" edge="1" parent="Ci0UJjsKDZjVtey__nGe-20" source="Ci0UJjsKDZjVtey__nGe-33" target="Ci0UJjsKDZjVtey__nGe-26">
          <mxGeometry relative="1" as="geometry">
            <mxPoint x="116" y="374" as="sourcePoint" />
            <mxPoint x="114.5" y="394" as="targetPoint" />
          </mxGeometry>
        </mxCell>
        <mxCell id="Ci0UJjsKDZjVtey__nGe-30" style="edgeStyle=orthogonalEdgeStyle;rounded=0;orthogonalLoop=1;jettySize=auto;html=1;entryX=0.5;entryY=0;entryDx=0;entryDy=0;strokeColor=#FF0000;" edge="1" parent="Ci0UJjsKDZjVtey__nGe-20" source="Ci0UJjsKDZjVtey__nGe-31" target="Ci0UJjsKDZjVtey__nGe-27">
          <mxGeometry relative="1" as="geometry" />
        </mxCell>
        <mxCell id="Ci0UJjsKDZjVtey__nGe-31" value="返回给用户" style="whiteSpace=wrap;" vertex="1" parent="Ci0UJjsKDZjVtey__nGe-20">
          <mxGeometry x="60" y="502" width="110" height="50" as="geometry" />
        </mxCell>
        <mxCell id="Ci0UJjsKDZjVtey__nGe-32" value="" style="endArrow=open;strokeColor=#FF0000;endFill=1;rounded=0;edgeStyle=elbowEdgeStyle;" edge="1" parent="Ci0UJjsKDZjVtey__nGe-20" source="Ci0UJjsKDZjVtey__nGe-26" target="Ci0UJjsKDZjVtey__nGe-31">
          <mxGeometry relative="1" as="geometry" />
        </mxCell>
        <mxCell id="Ci0UJjsKDZjVtey__nGe-33" value="解析关联数据" style="" vertex="1" parent="Ci0UJjsKDZjVtey__nGe-20">
          <mxGeometry x="60" y="308" width="110" height="50" as="geometry" />
        </mxCell>
        <mxCell id="Ci0UJjsKDZjVtey__nGe-34" value="图数据库" style="shape=note;whiteSpace=wrap;size=17;fillColor=#fff2cc;strokeColor=#d6b656;" vertex="1" parent="1">
          <mxGeometry x="1218" y="336" width="100" height="50" as="geometry" />
        </mxCell>
        <mxCell id="Ci0UJjsKDZjVtey__nGe-35" style="edgeStyle=orthogonalEdgeStyle;rounded=0;orthogonalLoop=1;jettySize=auto;html=1;dashed=1;endArrow=none;endFill=0;startArrow=classicThin;startFill=1;" edge="1" parent="1" source="Ci0UJjsKDZjVtey__nGe-24" target="Ci0UJjsKDZjVtey__nGe-34">
          <mxGeometry relative="1" as="geometry" />
        </mxCell>
        <mxCell id="Ci0UJjsKDZjVtey__nGe-36" value="关系型数据库" style="shape=note;whiteSpace=wrap;size=17;fillColor=#fff2cc;strokeColor=#d6b656;" vertex="1" parent="1">
          <mxGeometry x="1220" y="532" width="100" height="50" as="geometry" />
        </mxCell>
        <mxCell id="Ci0UJjsKDZjVtey__nGe-37" style="edgeStyle=orthogonalEdgeStyle;rounded=0;orthogonalLoop=1;jettySize=auto;html=1;entryX=0;entryY=0.5;entryDx=0;entryDy=0;entryPerimeter=0;endArrow=none;endFill=0;dashed=1;startArrow=classic;startFill=1;" edge="1" parent="1" source="Ci0UJjsKDZjVtey__nGe-26" target="Ci0UJjsKDZjVtey__nGe-36">
          <mxGeometry relative="1" as="geometry" />
        </mxCell>
        <mxCell id="Ci0UJjsKDZjVtey__nGe-38" value="数据输入阶段" style="swimlane;whiteSpace=wrap" vertex="1" parent="1">
          <mxGeometry x="164.5" y="1031" width="280" height="503" as="geometry" />
        </mxCell>
        <mxCell id="Ci0UJjsKDZjVtey__nGe-39" value="" style="ellipse;shape=startState;fillColor=#000000;strokeColor=#ff0000;" vertex="1" parent="Ci0UJjsKDZjVtey__nGe-38">
          <mxGeometry x="100" y="40" width="30" height="30" as="geometry" />
        </mxCell>
        <mxCell id="Ci0UJjsKDZjVtey__nGe-40" value="" style="edgeStyle=elbowEdgeStyle;elbow=horizontal;verticalAlign=bottom;endArrow=open;endSize=8;strokeColor=#FF0000;endFill=1;rounded=0" edge="1" parent="Ci0UJjsKDZjVtey__nGe-38" source="Ci0UJjsKDZjVtey__nGe-39" target="Ci0UJjsKDZjVtey__nGe-41">
          <mxGeometry x="100" y="40" as="geometry">
            <mxPoint x="115" y="110" as="targetPoint" />
          </mxGeometry>
        </mxCell>
        <mxCell id="Ci0UJjsKDZjVtey__nGe-41" value="架构对象定义变更&#xa;架构对象数据变更" style="" vertex="1" parent="Ci0UJjsKDZjVtey__nGe-38">
          <mxGeometry x="60" y="110" width="110" height="50" as="geometry" />
        </mxCell>
        <mxCell id="Ci0UJjsKDZjVtey__nGe-42" value="" style="endArrow=open;strokeColor=#FF0000;endFill=1;rounded=0" edge="1" parent="Ci0UJjsKDZjVtey__nGe-38" source="Ci0UJjsKDZjVtey__nGe-41" target="Ci0UJjsKDZjVtey__nGe-43">
          <mxGeometry relative="1" as="geometry">
            <mxPoint x="115" y="220" as="targetPoint" />
          </mxGeometry>
        </mxCell>
        <mxCell id="Ci0UJjsKDZjVtey__nGe-43" value="持久化至关系型数据库" style="whiteSpace=wrap;" vertex="1" parent="Ci0UJjsKDZjVtey__nGe-38">
          <mxGeometry x="60" y="211" width="110" height="50" as="geometry" />
        </mxCell>
        <mxCell id="Ci0UJjsKDZjVtey__nGe-44" value="" style="ellipse;shape=endState;fillColor=#000000;strokeColor=#ff0000" vertex="1" parent="Ci0UJjsKDZjVtey__nGe-38">
          <mxGeometry x="100" y="440" width="30" height="30" as="geometry" />
        </mxCell>
        <mxCell id="Ci0UJjsKDZjVtey__nGe-45" style="edgeStyle=orthogonalEdgeStyle;rounded=0;orthogonalLoop=1;jettySize=auto;html=1;entryX=0.5;entryY=0;entryDx=0;entryDy=0;strokeColor=#FF0000;" edge="1" parent="Ci0UJjsKDZjVtey__nGe-38" source="Ci0UJjsKDZjVtey__nGe-46" target="Ci0UJjsKDZjVtey__nGe-44">
          <mxGeometry relative="1" as="geometry" />
        </mxCell>
        <mxCell id="Ci0UJjsKDZjVtey__nGe-46" value="发送数据新增、变更消息" style="whiteSpace=wrap;" vertex="1" parent="Ci0UJjsKDZjVtey__nGe-38">
          <mxGeometry x="60" y="310" width="110" height="50" as="geometry" />
        </mxCell>
        <mxCell id="Ci0UJjsKDZjVtey__nGe-47" value="" style="endArrow=open;strokeColor=#FF0000;endFill=1;rounded=0;edgeStyle=elbowEdgeStyle;entryX=0.5;entryY=0;entryDx=0;entryDy=0;" edge="1" parent="Ci0UJjsKDZjVtey__nGe-38" source="Ci0UJjsKDZjVtey__nGe-43" target="Ci0UJjsKDZjVtey__nGe-46">
          <mxGeometry relative="1" as="geometry">
            <mxPoint x="115.5" y="311" as="targetPoint" />
          </mxGeometry>
        </mxCell>
        <mxCell id="Ci0UJjsKDZjVtey__nGe-48" value="数据同步阶段" style="swimlane;whiteSpace=wrap" vertex="1" parent="1">
          <mxGeometry x="444" y="1031" width="280" height="503" as="geometry" />
        </mxCell>
        <mxCell id="Ci0UJjsKDZjVtey__nGe-49" style="rounded=0;orthogonalLoop=1;jettySize=auto;html=1;exitX=1;exitY=1;exitDx=0;exitDy=0;exitPerimeter=0;strokeColor=#FF0000;entryX=0.5;entryY=0;entryDx=0;entryDy=0;" edge="1" parent="Ci0UJjsKDZjVtey__nGe-48" source="Ci0UJjsKDZjVtey__nGe-51" target="Ci0UJjsKDZjVtey__nGe-53">
          <mxGeometry relative="1" as="geometry">
            <mxPoint x="66.55263157894728" y="238" as="targetPoint" />
          </mxGeometry>
        </mxCell>
        <mxCell id="Ci0UJjsKDZjVtey__nGe-50" value="对象数据变更消息监听" style="edgeLabel;html=1;align=center;verticalAlign=middle;resizable=0;points=[];" vertex="1" connectable="0" parent="Ci0UJjsKDZjVtey__nGe-49">
          <mxGeometry x="-0.0781" relative="1" as="geometry">
            <mxPoint x="5" y="17" as="offset" />
          </mxGeometry>
        </mxCell>
        <mxCell id="Ci0UJjsKDZjVtey__nGe-51" value="RocketMQ" style="shape=note;whiteSpace=wrap;size=17;fillColor=#fff2cc;strokeColor=#d6b656;" vertex="1" parent="Ci0UJjsKDZjVtey__nGe-48">
          <mxGeometry x="-44.5" y="118" width="100" height="50" as="geometry" />
        </mxCell>
        <mxCell id="Ci0UJjsKDZjVtey__nGe-52" style="rounded=0;orthogonalLoop=1;jettySize=auto;html=1;entryX=0.5;entryY=0;entryDx=0;entryDy=0;strokeColor=#FF0000;exitX=0.5;exitY=1;exitDx=0;exitDy=0;" edge="1" parent="Ci0UJjsKDZjVtey__nGe-48" source="Ci0UJjsKDZjVtey__nGe-53" target="Ci0UJjsKDZjVtey__nGe-54">
          <mxGeometry relative="1" as="geometry" />
        </mxCell>
        <mxCell id="Ci0UJjsKDZjVtey__nGe-53" value="架构对象数据同步至es" style="whiteSpace=wrap;" vertex="1" parent="Ci0UJjsKDZjVtey__nGe-48">
          <mxGeometry x="64" y="305" width="110" height="50" as="geometry" />
        </mxCell>
        <mxCell id="Ci0UJjsKDZjVtey__nGe-54" value="" style="ellipse;shape=endState;fillColor=#000000;strokeColor=#ff0000" vertex="1" parent="Ci0UJjsKDZjVtey__nGe-48">
          <mxGeometry x="104" y="436" width="30" height="30" as="geometry" />
        </mxCell>
        <mxCell id="Ci0UJjsKDZjVtey__nGe-55" value="" style="endArrow=classic;strokeColor=#FF0000;endFill=1;rounded=0;dashed=1;exitX=1;exitY=0.5;exitDx=0;exitDy=0;" edge="1" parent="1" source="Ci0UJjsKDZjVtey__nGe-46" target="Ci0UJjsKDZjVtey__nGe-51">
          <mxGeometry relative="1" as="geometry">
            <mxPoint x="334.5" y="1213.2352941176468" as="sourcePoint" />
          </mxGeometry>
        </mxCell>
        <mxCell id="Ci0UJjsKDZjVtey__nGe-56" value="架构对象数据查询" style="swimlane;whiteSpace=wrap;startSize=23;" vertex="1" parent="1">
          <mxGeometry x="910" y="1031" width="227" height="568" as="geometry" />
        </mxCell>
        <mxCell id="Ci0UJjsKDZjVtey__nGe-57" value="" style="ellipse;shape=startState;fillColor=#000000;strokeColor=#ff0000;" vertex="1" parent="Ci0UJjsKDZjVtey__nGe-56">
          <mxGeometry x="100" y="40" width="30" height="30" as="geometry" />
        </mxCell>
        <mxCell id="Ci0UJjsKDZjVtey__nGe-58" value="" style="edgeStyle=elbowEdgeStyle;elbow=horizontal;verticalAlign=bottom;endArrow=open;endSize=8;strokeColor=#FF0000;endFill=1;rounded=0" edge="1" parent="Ci0UJjsKDZjVtey__nGe-56" source="Ci0UJjsKDZjVtey__nGe-57" target="Ci0UJjsKDZjVtey__nGe-59">
          <mxGeometry x="100" y="40" as="geometry">
            <mxPoint x="115" y="110" as="targetPoint" />
          </mxGeometry>
        </mxCell>
        <mxCell id="Ci0UJjsKDZjVtey__nGe-59" value="架构对象条件" style="" vertex="1" parent="Ci0UJjsKDZjVtey__nGe-56">
          <mxGeometry x="60" y="110" width="110" height="50" as="geometry" />
        </mxCell>
        <mxCell id="Ci0UJjsKDZjVtey__nGe-60" value="根据条件查询ES数据库" style="whiteSpace=wrap;" vertex="1" parent="Ci0UJjsKDZjVtey__nGe-56">
          <mxGeometry x="60" y="206" width="110" height="50" as="geometry" />
        </mxCell>
        <mxCell id="Ci0UJjsKDZjVtey__nGe-61" value="" style="endArrow=open;strokeColor=#FF0000;endFill=1;rounded=0" edge="1" parent="Ci0UJjsKDZjVtey__nGe-56" source="Ci0UJjsKDZjVtey__nGe-59" target="Ci0UJjsKDZjVtey__nGe-60">
          <mxGeometry relative="1" as="geometry" />
        </mxCell>
        <mxCell id="Ci0UJjsKDZjVtey__nGe-62" value="如有需要，根据关键要素丰富数据本体" style="whiteSpace=wrap;dashed=1;fillColor=#f5f5f5;fontColor=#333333;strokeColor=#666666;" vertex="1" parent="Ci0UJjsKDZjVtey__nGe-56">
          <mxGeometry x="60" y="300" width="110" height="50" as="geometry" />
        </mxCell>
        <mxCell id="Ci0UJjsKDZjVtey__nGe-63" value="" style="ellipse;shape=endState;fillColor=#000000;strokeColor=#ff0000" vertex="1" parent="Ci0UJjsKDZjVtey__nGe-56">
          <mxGeometry x="100" y="516" width="30" height="30" as="geometry" />
        </mxCell>
        <mxCell id="Ci0UJjsKDZjVtey__nGe-64" value="" style="endArrow=open;strokeColor=#FF0000;endFill=1;rounded=0;entryX=0.505;entryY=0;entryDx=0;entryDy=0;entryPerimeter=0;exitX=0.5;exitY=1;exitDx=0;exitDy=0;" edge="1" parent="Ci0UJjsKDZjVtey__nGe-56" target="Ci0UJjsKDZjVtey__nGe-62">
          <mxGeometry relative="1" as="geometry">
            <mxPoint x="115" y="256" as="sourcePoint" />
            <mxPoint x="114.5" y="292" as="targetPoint" />
          </mxGeometry>
        </mxCell>
        <mxCell id="Ci0UJjsKDZjVtey__nGe-65" style="edgeStyle=orthogonalEdgeStyle;rounded=0;orthogonalLoop=1;jettySize=auto;html=1;entryX=0.5;entryY=0;entryDx=0;entryDy=0;strokeColor=#FF0000;" edge="1" parent="Ci0UJjsKDZjVtey__nGe-56" source="Ci0UJjsKDZjVtey__nGe-66" target="Ci0UJjsKDZjVtey__nGe-63">
          <mxGeometry relative="1" as="geometry" />
        </mxCell>
        <mxCell id="Ci0UJjsKDZjVtey__nGe-66" value="返回给用户" style="whiteSpace=wrap;" vertex="1" parent="Ci0UJjsKDZjVtey__nGe-56">
          <mxGeometry x="60" y="400" width="110" height="50" as="geometry" />
        </mxCell>
        <mxCell id="Ci0UJjsKDZjVtey__nGe-67" value="" style="endArrow=open;strokeColor=#FF0000;endFill=1;rounded=0;edgeStyle=elbowEdgeStyle;" edge="1" parent="Ci0UJjsKDZjVtey__nGe-56" source="Ci0UJjsKDZjVtey__nGe-62" target="Ci0UJjsKDZjVtey__nGe-66">
          <mxGeometry relative="1" as="geometry" />
        </mxCell>
        <mxCell id="Ci0UJjsKDZjVtey__nGe-68" value="ES数据库" style="shape=note;whiteSpace=wrap;size=17;fillColor=#fff2cc;strokeColor=#d6b656;" vertex="1" parent="1">
          <mxGeometry x="1161" y="1237" width="100" height="50" as="geometry" />
        </mxCell>
        <mxCell id="Ci0UJjsKDZjVtey__nGe-69" style="edgeStyle=orthogonalEdgeStyle;rounded=0;orthogonalLoop=1;jettySize=auto;html=1;dashed=1;endArrow=none;endFill=0;startArrow=classicThin;startFill=1;" edge="1" parent="1" source="Ci0UJjsKDZjVtey__nGe-60" target="Ci0UJjsKDZjVtey__nGe-68">
          <mxGeometry relative="1" as="geometry" />
        </mxCell>
        <mxCell id="Ci0UJjsKDZjVtey__nGe-70" value="关系型数据库" style="shape=note;whiteSpace=wrap;size=17;fillColor=#fff2cc;strokeColor=#d6b656;" vertex="1" parent="1">
          <mxGeometry x="1163" y="1331" width="100" height="50" as="geometry" />
        </mxCell>
        <mxCell id="Ci0UJjsKDZjVtey__nGe-71" style="edgeStyle=orthogonalEdgeStyle;rounded=0;orthogonalLoop=1;jettySize=auto;html=1;entryX=0;entryY=0.5;entryDx=0;entryDy=0;entryPerimeter=0;endArrow=none;endFill=0;dashed=1;startArrow=classic;startFill=1;" edge="1" parent="1" source="Ci0UJjsKDZjVtey__nGe-62" target="Ci0UJjsKDZjVtey__nGe-70">
          <mxGeometry relative="1" as="geometry" />
        </mxCell>
        <mxCell id="Ci0UJjsKDZjVtey__nGe-72" value="架构发起变更-版本管理员" style="swimlane;whiteSpace=wrap;startSize=57;direction=north;" vertex="1" parent="1">
          <mxGeometry x="1212" y="1832" width="1333" height="119" as="geometry" />
        </mxCell>
        <mxCell id="Ci0UJjsKDZjVtey__nGe-73" value="" style="ellipse;shape=startState;fillColor=#000000;strokeColor=#ff0000;" vertex="1" parent="Ci0UJjsKDZjVtey__nGe-72">
          <mxGeometry x="134" y="46" width="30" height="30" as="geometry" />
        </mxCell>
        <mxCell id="Ci0UJjsKDZjVtey__nGe-74" value="" style="edgeStyle=elbowEdgeStyle;elbow=horizontal;verticalAlign=bottom;endArrow=open;endSize=8;strokeColor=#FF0000;endFill=1;rounded=0" edge="1" parent="Ci0UJjsKDZjVtey__nGe-72" source="Ci0UJjsKDZjVtey__nGe-73" target="Ci0UJjsKDZjVtey__nGe-75">
          <mxGeometry x="100" y="40" as="geometry">
            <mxPoint x="201" y="99" as="targetPoint" />
          </mxGeometry>
        </mxCell>
        <mxCell id="Ci0UJjsKDZjVtey__nGe-75" value="发起新版本变更&#xa;（新增架构主版本信息）" style="" vertex="1" parent="Ci0UJjsKDZjVtey__nGe-72">
          <mxGeometry x="216" y="36" width="135" height="50" as="geometry" />
        </mxCell>
        <mxCell id="Ci0UJjsKDZjVtey__nGe-76" style="edgeStyle=orthogonalEdgeStyle;rounded=0;orthogonalLoop=1;jettySize=auto;html=1;exitX=1;exitY=0.5;exitDx=0;exitDy=0;entryX=0;entryY=0.5;entryDx=0;entryDy=0;strokeColor=#FF0000;" edge="1" parent="Ci0UJjsKDZjVtey__nGe-72" source="Ci0UJjsKDZjVtey__nGe-77" target="Ci0UJjsKDZjVtey__nGe-81">
          <mxGeometry relative="1" as="geometry" />
        </mxCell>
        <mxCell id="Ci0UJjsKDZjVtey__nGe-77" value="等待架构对象变更完毕" style="whiteSpace=wrap;dashed=1;fillColor=#fff2cc;strokeColor=#d6b656;" vertex="1" parent="Ci0UJjsKDZjVtey__nGe-72">
          <mxGeometry x="389" y="36" width="110" height="50" as="geometry" />
        </mxCell>
        <mxCell id="Ci0UJjsKDZjVtey__nGe-78" value="" style="endArrow=open;strokeColor=#FF0000;endFill=1;rounded=0" edge="1" parent="Ci0UJjsKDZjVtey__nGe-72" source="Ci0UJjsKDZjVtey__nGe-75" target="Ci0UJjsKDZjVtey__nGe-77">
          <mxGeometry relative="1" as="geometry" />
        </mxCell>
        <mxCell id="Ci0UJjsKDZjVtey__nGe-79" value="" style="ellipse;shape=endState;fillColor=#000000;strokeColor=#ff0000" vertex="1" parent="Ci0UJjsKDZjVtey__nGe-72">
          <mxGeometry x="795" y="45.5" width="30" height="30" as="geometry" />
        </mxCell>
        <mxCell id="Ci0UJjsKDZjVtey__nGe-80" style="edgeStyle=orthogonalEdgeStyle;rounded=0;orthogonalLoop=1;jettySize=auto;html=1;exitX=1;exitY=0.5;exitDx=0;exitDy=0;strokeColor=#FF0000;" edge="1" parent="Ci0UJjsKDZjVtey__nGe-72" source="Ci0UJjsKDZjVtey__nGe-81" target="Ci0UJjsKDZjVtey__nGe-79">
          <mxGeometry relative="1" as="geometry" />
        </mxCell>
        <mxCell id="Ci0UJjsKDZjVtey__nGe-81" value="发布新版" style="" vertex="1" parent="Ci0UJjsKDZjVtey__nGe-72">
          <mxGeometry x="587" y="36" width="135" height="50" as="geometry" />
        </mxCell>
        <mxCell id="Ci0UJjsKDZjVtey__nGe-82" value="架构对象变更-设计师" style="swimlane;whiteSpace=wrap;startSize=57;direction=north;" vertex="1" parent="1">
          <mxGeometry x="1212" y="1951" width="1332" height="188" as="geometry" />
        </mxCell>
        <mxCell id="Ci0UJjsKDZjVtey__nGe-83" style="edgeStyle=orthogonalEdgeStyle;rounded=0;orthogonalLoop=1;jettySize=auto;html=1;entryX=0;entryY=0.5;entryDx=0;entryDy=0;" edge="1" parent="Ci0UJjsKDZjVtey__nGe-82" source="Ci0UJjsKDZjVtey__nGe-84" target="Ci0UJjsKDZjVtey__nGe-85">
          <mxGeometry relative="1" as="geometry" />
        </mxCell>
        <mxCell id="Ci0UJjsKDZjVtey__nGe-84" value="发起变更申请" style="whiteSpace=wrap;" vertex="1" parent="Ci0UJjsKDZjVtey__nGe-82">
          <mxGeometry x="389" y="36" width="110" height="50" as="geometry" />
        </mxCell>
        <mxCell id="Ci0UJjsKDZjVtey__nGe-85" value="是否有人发起申请" style="rhombus;whiteSpace=wrap;html=1;fontColor=#000000;fillColor=#ffffc0;strokeColor=#ff0000;" vertex="1" parent="Ci0UJjsKDZjVtey__nGe-82">
          <mxGeometry x="543" y="41" width="80" height="40" as="geometry" />
        </mxCell>
        <mxCell id="Ci0UJjsKDZjVtey__nGe-86" value="yes" style="edgeStyle=orthogonalEdgeStyle;html=1;align=left;verticalAlign=top;endArrow=open;endSize=8;strokeColor=#ff0000;rounded=0;entryX=0.5;entryY=0;entryDx=0;entryDy=0;" edge="1" parent="Ci0UJjsKDZjVtey__nGe-82" source="Ci0UJjsKDZjVtey__nGe-85" target="Ci0UJjsKDZjVtey__nGe-87">
          <mxGeometry x="-1" relative="1" as="geometry">
            <mxPoint x="601" y="117" as="targetPoint" />
          </mxGeometry>
        </mxCell>
        <mxCell id="Ci0UJjsKDZjVtey__nGe-87" value="" style="ellipse;shape=endState;fillColor=#000000;strokeColor=#ff0000" vertex="1" parent="Ci0UJjsKDZjVtey__nGe-82">
          <mxGeometry x="568" y="115" width="30" height="30" as="geometry" />
        </mxCell>
        <mxCell id="Ci0UJjsKDZjVtey__nGe-88" value="" style="edgeStyle=orthogonalEdgeStyle;html=1;align=left;verticalAlign=bottom;endArrow=open;endSize=8;strokeColor=#ff0000;rounded=0;" edge="1" parent="Ci0UJjsKDZjVtey__nGe-82" source="Ci0UJjsKDZjVtey__nGe-85" target="Ci0UJjsKDZjVtey__nGe-92">
          <mxGeometry x="-1" relative="1" as="geometry">
            <mxPoint x="1935" y="2012" as="targetPoint" />
            <mxPoint x="1835" y="2012" as="sourcePoint" />
          </mxGeometry>
        </mxCell>
        <mxCell id="Ci0UJjsKDZjVtey__nGe-89" style="edgeStyle=orthogonalEdgeStyle;rounded=0;orthogonalLoop=1;jettySize=auto;html=1;entryX=0.5;entryY=0;entryDx=0;entryDy=0;" edge="1" parent="Ci0UJjsKDZjVtey__nGe-82" source="Ci0UJjsKDZjVtey__nGe-92" target="Ci0UJjsKDZjVtey__nGe-93">
          <mxGeometry relative="1" as="geometry" />
        </mxCell>
        <mxCell id="Ci0UJjsKDZjVtey__nGe-90" value="yes" style="edgeLabel;html=1;align=center;verticalAlign=middle;resizable=0;points=[];" vertex="1" connectable="0" parent="Ci0UJjsKDZjVtey__nGe-89">
          <mxGeometry x="0.2093" relative="1" as="geometry">
            <mxPoint x="11" y="-4" as="offset" />
          </mxGeometry>
        </mxCell>
        <mxCell id="Ci0UJjsKDZjVtey__nGe-91" style="edgeStyle=orthogonalEdgeStyle;rounded=0;orthogonalLoop=1;jettySize=auto;html=1;fontColor=#FF0000;" edge="1" parent="Ci0UJjsKDZjVtey__nGe-82" source="Ci0UJjsKDZjVtey__nGe-92" target="Ci0UJjsKDZjVtey__nGe-95">
          <mxGeometry relative="1" as="geometry" />
        </mxCell>
        <mxCell id="Ci0UJjsKDZjVtey__nGe-92" value="流程审批通过" style="rhombus;whiteSpace=wrap;html=1;fontColor=#000000;fillColor=#ffffc0;strokeColor=#ff0000;" vertex="1" parent="Ci0UJjsKDZjVtey__nGe-82">
          <mxGeometry x="667" y="41" width="80" height="40" as="geometry" />
        </mxCell>
        <mxCell id="Ci0UJjsKDZjVtey__nGe-93" value="" style="ellipse;shape=endState;fillColor=#000000;strokeColor=#ff0000" vertex="1" parent="Ci0UJjsKDZjVtey__nGe-82">
          <mxGeometry x="692" y="118" width="30" height="30" as="geometry" />
        </mxCell>
        <mxCell id="Ci0UJjsKDZjVtey__nGe-94" style="edgeStyle=orthogonalEdgeStyle;rounded=0;orthogonalLoop=1;jettySize=auto;html=1;fontColor=#FF0000;" edge="1" parent="Ci0UJjsKDZjVtey__nGe-82">
          <mxGeometry relative="1" as="geometry">
            <mxPoint x="851" y="86" as="sourcePoint" />
            <mxPoint x="853" y="118" as="targetPoint" />
          </mxGeometry>
        </mxCell>
        <mxCell id="Ci0UJjsKDZjVtey__nGe-95" value="锁定架构展示信息" style="whiteSpace=wrap;" vertex="1" parent="Ci0UJjsKDZjVtey__nGe-82">
          <mxGeometry x="798" y="36" width="110" height="50" as="geometry" />
        </mxCell>
        <mxCell id="Ci0UJjsKDZjVtey__nGe-96" style="edgeStyle=orthogonalEdgeStyle;rounded=0;orthogonalLoop=1;jettySize=auto;html=1;entryX=0;entryY=0.5;entryDx=0;entryDy=0;" edge="1" parent="Ci0UJjsKDZjVtey__nGe-82" source="Ci0UJjsKDZjVtey__nGe-97" target="Ci0UJjsKDZjVtey__nGe-99">
          <mxGeometry relative="1" as="geometry" />
        </mxCell>
        <mxCell id="Ci0UJjsKDZjVtey__nGe-97" value="基于最新的架构生成新草稿记录并开始变更" style="whiteSpace=wrap;" vertex="1" parent="Ci0UJjsKDZjVtey__nGe-82">
          <mxGeometry x="800" y="118" width="110" height="50" as="geometry" />
        </mxCell>
        <mxCell id="Ci0UJjsKDZjVtey__nGe-98" style="edgeStyle=orthogonalEdgeStyle;rounded=0;orthogonalLoop=1;jettySize=auto;html=1;entryX=0.5;entryY=1;entryDx=0;entryDy=0;fontColor=#FF0000;" edge="1" parent="Ci0UJjsKDZjVtey__nGe-82" source="Ci0UJjsKDZjVtey__nGe-99" target="Ci0UJjsKDZjVtey__nGe-104">
          <mxGeometry relative="1" as="geometry" />
        </mxCell>
        <mxCell id="Ci0UJjsKDZjVtey__nGe-99" value="提交变更信息" style="whiteSpace=wrap;" vertex="1" parent="Ci0UJjsKDZjVtey__nGe-82">
          <mxGeometry x="945" y="117" width="110" height="51" as="geometry" />
        </mxCell>
        <mxCell id="Ci0UJjsKDZjVtey__nGe-100" style="rounded=0;orthogonalLoop=1;jettySize=auto;html=1;entryX=0.148;entryY=-0.007;entryDx=0;entryDy=0;entryPerimeter=0;exitX=0;exitY=0.5;exitDx=0;exitDy=0;edgeStyle=orthogonalEdgeStyle;fontColor=#FF0000;" edge="1" parent="Ci0UJjsKDZjVtey__nGe-82" source="Ci0UJjsKDZjVtey__nGe-104" target="Ci0UJjsKDZjVtey__nGe-99">
          <mxGeometry relative="1" as="geometry">
            <Array as="points">
              <mxPoint x="940" y="59" />
              <mxPoint x="940" y="97" />
              <mxPoint x="961" y="97" />
            </Array>
          </mxGeometry>
        </mxCell>
        <mxCell id="Ci0UJjsKDZjVtey__nGe-101" value="No" style="edgeLabel;html=1;align=center;verticalAlign=middle;resizable=0;points=[];fontColor=#330000;" vertex="1" connectable="0" parent="Ci0UJjsKDZjVtey__nGe-100">
          <mxGeometry x="-0.2988" relative="1" as="geometry">
            <mxPoint as="offset" />
          </mxGeometry>
        </mxCell>
        <mxCell id="Ci0UJjsKDZjVtey__nGe-102" style="edgeStyle=orthogonalEdgeStyle;rounded=0;orthogonalLoop=1;jettySize=auto;html=1;fontColor=#FF0000;" edge="1" parent="Ci0UJjsKDZjVtey__nGe-82" source="Ci0UJjsKDZjVtey__nGe-104" target="Ci0UJjsKDZjVtey__nGe-106">
          <mxGeometry relative="1" as="geometry" />
        </mxCell>
        <mxCell id="Ci0UJjsKDZjVtey__nGe-103" value="yes" style="edgeLabel;html=1;align=center;verticalAlign=middle;resizable=0;points=[];" vertex="1" connectable="0" parent="Ci0UJjsKDZjVtey__nGe-102">
          <mxGeometry x="-0.7236" y="-1" relative="1" as="geometry">
            <mxPoint x="7" y="1" as="offset" />
          </mxGeometry>
        </mxCell>
        <mxCell id="Ci0UJjsKDZjVtey__nGe-104" value="审核通过" style="rhombus;whiteSpace=wrap;html=1;fontColor=#000000;fillColor=#ffffc0;strokeColor=#ff0000;" vertex="1" parent="Ci0UJjsKDZjVtey__nGe-82">
          <mxGeometry x="960" y="39" width="80" height="40" as="geometry" />
        </mxCell>
        <mxCell id="Ci0UJjsKDZjVtey__nGe-105" style="edgeStyle=orthogonalEdgeStyle;rounded=0;orthogonalLoop=1;jettySize=auto;html=1;fontColor=#FF0000;" edge="1" parent="Ci0UJjsKDZjVtey__nGe-82" source="Ci0UJjsKDZjVtey__nGe-106" target="Ci0UJjsKDZjVtey__nGe-108">
          <mxGeometry relative="1" as="geometry" />
        </mxCell>
        <mxCell id="Ci0UJjsKDZjVtey__nGe-106" value="当前架构展示信息数据复制到历史信息表" style="whiteSpace=wrap;" vertex="1" parent="Ci0UJjsKDZjVtey__nGe-82">
          <mxGeometry x="1079" y="33.5" width="110" height="51" as="geometry" />
        </mxCell>
        <mxCell id="Ci0UJjsKDZjVtey__nGe-107" style="edgeStyle=orthogonalEdgeStyle;rounded=0;orthogonalLoop=1;jettySize=auto;html=1;fontColor=#FF0000;" edge="1" parent="Ci0UJjsKDZjVtey__nGe-82" source="Ci0UJjsKDZjVtey__nGe-108" target="Ci0UJjsKDZjVtey__nGe-109">
          <mxGeometry relative="1" as="geometry" />
        </mxCell>
        <mxCell id="Ci0UJjsKDZjVtey__nGe-108" value="当前草稿记录数据复制到架构展示信息表" style="whiteSpace=wrap;" vertex="1" parent="Ci0UJjsKDZjVtey__nGe-82">
          <mxGeometry x="1079" y="118" width="110" height="51" as="geometry" />
        </mxCell>
        <mxCell id="Ci0UJjsKDZjVtey__nGe-109" value="" style="ellipse;shape=endState;fillColor=#000000;strokeColor=#ff0000" vertex="1" parent="Ci0UJjsKDZjVtey__nGe-82">
          <mxGeometry x="1251" y="128.5" width="30" height="30" as="geometry" />
        </mxCell>
        <mxCell id="Ci0UJjsKDZjVtey__nGe-110" style="edgeStyle=orthogonalEdgeStyle;rounded=0;orthogonalLoop=1;jettySize=auto;html=1;exitX=0.5;exitY=1;exitDx=0;exitDy=0;entryX=0.5;entryY=0;entryDx=0;entryDy=0;strokeColor=#FF0000;" edge="1" parent="1" source="Ci0UJjsKDZjVtey__nGe-77" target="Ci0UJjsKDZjVtey__nGe-84">
          <mxGeometry relative="1" as="geometry" />
        </mxCell>
        <mxCell id="Ci0UJjsKDZjVtey__nGe-111" style="edgeStyle=orthogonalEdgeStyle;rounded=1;orthogonalLoop=1;jettySize=auto;html=1;exitX=1;exitY=0.25;exitDx=0;exitDy=0;dashed=1;strokeColor=#FF0000;entryX=0.75;entryY=1;entryDx=0;entryDy=0;" edge="1" parent="1" source="Ci0UJjsKDZjVtey__nGe-108" target="Ci0UJjsKDZjVtey__nGe-77">
          <mxGeometry relative="1" as="geometry">
            <mxPoint x="2377" y="2136" as="sourcePoint" />
            <mxPoint x="1687" y="1930" as="targetPoint" />
            <Array as="points">
              <mxPoint x="2401" y="2096" />
              <mxPoint x="2403" y="2096" />
              <mxPoint x="2403" y="2068" />
              <mxPoint x="2435" y="2068" />
              <mxPoint x="2435" y="1944" />
              <mxPoint x="1687" y="1944" />
              <mxPoint x="1687" y="1918" />
            </Array>
          </mxGeometry>
        </mxCell>
      </root>
    </mxGraphModel>
  </diagram>
</mxfile>
